<mxfile host="app.diagrams.net" agent="Mozilla/5.0 (Macintosh; Intel Mac OS X 10_15_7) AppleWebKit/537.36 (KHTML, like Gecko) Chrome/129.0.0.0 Safari/537.36" version="24.7.17">
  <diagram name="Страница — 1" id="xdu1-sEnkgLp20Y-n_Gp">
    <mxGraphModel dx="1195" dy="783" grid="1" gridSize="10" guides="1" tooltips="1" connect="1" arrows="1" fold="1" page="1" pageScale="1" pageWidth="3300" pageHeight="2339" math="0" shadow="0">
      <root>
        <mxCell id="0" />
        <mxCell id="1" parent="0" />
        <mxCell id="ExXGJqB2bO8ZWLYXyuPD-1" value="AssetsViewController" style="swimlane;whiteSpace=wrap;html=1;fillColor=#d5e8d4;strokeColor=#82b366;" vertex="1" parent="1">
          <mxGeometry x="240" y="365" width="190" height="250" as="geometry" />
        </mxCell>
        <mxCell id="ExXGJqB2bO8ZWLYXyuPD-51" value="viewdidLoad()" style="text;html=1;align=center;verticalAlign=middle;resizable=0;points=[];autosize=1;strokeColor=none;fillColor=none;" vertex="1" parent="ExXGJqB2bO8ZWLYXyuPD-1">
          <mxGeometry x="15" y="45" width="100" height="30" as="geometry" />
        </mxCell>
        <mxCell id="ExXGJqB2bO8ZWLYXyuPD-22" style="edgeStyle=orthogonalEdgeStyle;rounded=0;orthogonalLoop=1;jettySize=auto;html=1;exitX=0.5;exitY=1;exitDx=0;exitDy=0;entryX=0.5;entryY=0;entryDx=0;entryDy=0;" edge="1" parent="1" source="ExXGJqB2bO8ZWLYXyuPD-3" target="ExXGJqB2bO8ZWLYXyuPD-14">
          <mxGeometry relative="1" as="geometry" />
        </mxCell>
        <mxCell id="ExXGJqB2bO8ZWLYXyuPD-3" value="AssetsInteractor" style="swimlane;whiteSpace=wrap;html=1;fillColor=#f8cecc;strokeColor=#b85450;" vertex="1" parent="1">
          <mxGeometry x="850" y="360" width="200" height="280" as="geometry" />
        </mxCell>
        <mxCell id="ExXGJqB2bO8ZWLYXyuPD-43" style="edgeStyle=orthogonalEdgeStyle;rounded=0;orthogonalLoop=1;jettySize=auto;html=1;entryX=0.5;entryY=0;entryDx=0;entryDy=0;" edge="1" parent="ExXGJqB2bO8ZWLYXyuPD-3" source="ExXGJqB2bO8ZWLYXyuPD-4" target="ExXGJqB2bO8ZWLYXyuPD-42">
          <mxGeometry relative="1" as="geometry" />
        </mxCell>
        <mxCell id="ExXGJqB2bO8ZWLYXyuPD-4" value="AssetsService" style="whiteSpace=wrap;html=1;" vertex="1" parent="ExXGJqB2bO8ZWLYXyuPD-3">
          <mxGeometry x="40" y="53" width="120" height="110" as="geometry" />
        </mxCell>
        <mxCell id="ExXGJqB2bO8ZWLYXyuPD-41" style="edgeStyle=orthogonalEdgeStyle;rounded=0;orthogonalLoop=1;jettySize=auto;html=1;exitX=0.5;exitY=1;exitDx=0;exitDy=0;" edge="1" parent="ExXGJqB2bO8ZWLYXyuPD-3" source="ExXGJqB2bO8ZWLYXyuPD-4" target="ExXGJqB2bO8ZWLYXyuPD-4">
          <mxGeometry relative="1" as="geometry" />
        </mxCell>
        <mxCell id="ExXGJqB2bO8ZWLYXyuPD-42" value="ImageLoader" style="rounded=0;whiteSpace=wrap;html=1;fillColor=#e1d5e7;strokeColor=#9673a6;" vertex="1" parent="ExXGJqB2bO8ZWLYXyuPD-3">
          <mxGeometry x="40" y="180" width="120" height="60" as="geometry" />
        </mxCell>
        <mxCell id="ExXGJqB2bO8ZWLYXyuPD-5" style="edgeStyle=orthogonalEdgeStyle;rounded=0;orthogonalLoop=1;jettySize=auto;html=1;entryX=0;entryY=0.25;entryDx=0;entryDy=0;" edge="1" parent="1" source="ExXGJqB2bO8ZWLYXyuPD-2" target="ExXGJqB2bO8ZWLYXyuPD-4">
          <mxGeometry relative="1" as="geometry">
            <mxPoint x="850" y="440" as="targetPoint" />
          </mxGeometry>
        </mxCell>
        <mxCell id="ExXGJqB2bO8ZWLYXyuPD-25" style="edgeStyle=orthogonalEdgeStyle;rounded=0;orthogonalLoop=1;jettySize=auto;html=1;entryX=1;entryY=0.5;entryDx=0;entryDy=0;" edge="1" parent="1" source="ExXGJqB2bO8ZWLYXyuPD-6" target="ExXGJqB2bO8ZWLYXyuPD-23">
          <mxGeometry relative="1" as="geometry" />
        </mxCell>
        <mxCell id="ExXGJqB2bO8ZWLYXyuPD-6" value="AssetsPresenter" style="swimlane;whiteSpace=wrap;html=1;fillColor=#dae8fc;strokeColor=#6c8ebf;" vertex="1" parent="1">
          <mxGeometry x="850" y="800" width="200" height="200" as="geometry" />
        </mxCell>
        <mxCell id="ExXGJqB2bO8ZWLYXyuPD-29" value="ViewModelWithoutImage" style="text;html=1;align=center;verticalAlign=middle;resizable=0;points=[];autosize=1;strokeColor=none;fillColor=none;" vertex="1" parent="ExXGJqB2bO8ZWLYXyuPD-6">
          <mxGeometry x="20" y="78" width="160" height="30" as="geometry" />
        </mxCell>
        <mxCell id="ExXGJqB2bO8ZWLYXyuPD-31" value="ViewModelWithImage" style="text;html=1;align=center;verticalAlign=middle;resizable=0;points=[];autosize=1;strokeColor=none;fillColor=none;" vertex="1" parent="ExXGJqB2bO8ZWLYXyuPD-6">
          <mxGeometry x="20" y="108" width="140" height="30" as="geometry" />
        </mxCell>
        <mxCell id="ExXGJqB2bO8ZWLYXyuPD-10" value="&amp;lt;&amp;lt;AssetsIneractoeInput&amp;gt;&amp;gt;" style="swimlane;whiteSpace=wrap;html=1;fillColor=#f8cecc;strokeColor=#b85450;" vertex="1" parent="1">
          <mxGeometry x="540" y="380" width="200" height="190" as="geometry" />
        </mxCell>
        <mxCell id="ExXGJqB2bO8ZWLYXyuPD-11" value="" style="group" vertex="1" connectable="0" parent="ExXGJqB2bO8ZWLYXyuPD-10">
          <mxGeometry x="40" y="30" width="120" height="60" as="geometry" />
        </mxCell>
        <mxCell id="ExXGJqB2bO8ZWLYXyuPD-9" value="" style="rounded=0;whiteSpace=wrap;html=1;" vertex="1" parent="ExXGJqB2bO8ZWLYXyuPD-11">
          <mxGeometry width="120" height="60" as="geometry" />
        </mxCell>
        <mxCell id="ExXGJqB2bO8ZWLYXyuPD-2" value="&lt;div&gt;&lt;span style=&quot;background-color: initial;&quot;&gt;fetchAssets()&lt;/span&gt;&lt;br&gt;&lt;/div&gt;" style="text;html=1;align=center;verticalAlign=middle;resizable=0;points=[];autosize=1;strokeColor=none;fillColor=none;" vertex="1" parent="ExXGJqB2bO8ZWLYXyuPD-11">
          <mxGeometry x="15" y="15" width="90" height="30" as="geometry" />
        </mxCell>
        <mxCell id="ExXGJqB2bO8ZWLYXyuPD-48" style="edgeStyle=orthogonalEdgeStyle;rounded=0;orthogonalLoop=1;jettySize=auto;html=1;exitX=0;exitY=0.25;exitDx=0;exitDy=0;entryX=1;entryY=0.5;entryDx=0;entryDy=0;" edge="1" parent="1" source="ExXGJqB2bO8ZWLYXyuPD-14" target="ExXGJqB2bO8ZWLYXyuPD-6">
          <mxGeometry relative="1" as="geometry" />
        </mxCell>
        <mxCell id="ExXGJqB2bO8ZWLYXyuPD-14" value="&amp;lt;&amp;lt;AssetsPresenter&lt;span style=&quot;background-color: initial;&quot;&gt;Input&amp;gt;&amp;gt;&lt;/span&gt;" style="swimlane;whiteSpace=wrap;html=1;fillColor=#dae8fc;strokeColor=#6c8ebf;" vertex="1" parent="1">
          <mxGeometry x="1350" y="870" width="200" height="120" as="geometry" />
        </mxCell>
        <mxCell id="ExXGJqB2bO8ZWLYXyuPD-26" value="&lt;div&gt;assetsFetched()&lt;/div&gt;" style="text;html=1;align=center;verticalAlign=middle;resizable=0;points=[];autosize=1;strokeColor=none;fillColor=none;" vertex="1" parent="ExXGJqB2bO8ZWLYXyuPD-14">
          <mxGeometry x="20" y="45" width="110" height="30" as="geometry" />
        </mxCell>
        <mxCell id="ExXGJqB2bO8ZWLYXyuPD-24" style="edgeStyle=orthogonalEdgeStyle;rounded=0;orthogonalLoop=1;jettySize=auto;html=1;entryX=0.5;entryY=1;entryDx=0;entryDy=0;" edge="1" parent="1" source="ExXGJqB2bO8ZWLYXyuPD-23" target="ExXGJqB2bO8ZWLYXyuPD-1">
          <mxGeometry relative="1" as="geometry">
            <mxPoint x="330" y="630" as="targetPoint" />
          </mxGeometry>
        </mxCell>
        <mxCell id="ExXGJqB2bO8ZWLYXyuPD-23" value="&amp;lt;&amp;lt;&lt;span style=&quot;background-color: initial;&quot;&gt;AssetsViewControllerInput&amp;gt;&amp;gt;&lt;/span&gt;" style="swimlane;whiteSpace=wrap;html=1;fillColor=#d5e8d4;strokeColor=#82b366;" vertex="1" parent="1">
          <mxGeometry x="540" y="800" width="200" height="200" as="geometry" />
        </mxCell>
        <mxCell id="ExXGJqB2bO8ZWLYXyuPD-27" value="up&lt;span style=&quot;background-color: initial;&quot;&gt;dateAssets&lt;/span&gt;" style="text;html=1;align=center;verticalAlign=middle;resizable=0;points=[];autosize=1;strokeColor=none;fillColor=none;" vertex="1" parent="ExXGJqB2bO8ZWLYXyuPD-23">
          <mxGeometry x="30" y="70" width="100" height="30" as="geometry" />
        </mxCell>
        <mxCell id="ExXGJqB2bO8ZWLYXyuPD-28" value="updateViewModel" style="text;html=1;align=center;verticalAlign=middle;resizable=0;points=[];autosize=1;strokeColor=none;fillColor=none;" vertex="1" parent="ExXGJqB2bO8ZWLYXyuPD-23">
          <mxGeometry x="30" y="100" width="120" height="30" as="geometry" />
        </mxCell>
        <mxCell id="ExXGJqB2bO8ZWLYXyuPD-30" value="assetsImageFetched()" style="text;html=1;align=center;verticalAlign=middle;resizable=0;points=[];autosize=1;strokeColor=none;fillColor=none;" vertex="1" parent="1">
          <mxGeometry x="840" y="698" width="140" height="30" as="geometry" />
        </mxCell>
        <mxCell id="ExXGJqB2bO8ZWLYXyuPD-33" value="Cache" style="rounded=0;whiteSpace=wrap;html=1;" vertex="1" parent="1">
          <mxGeometry x="1540" y="580" width="120" height="90" as="geometry" />
        </mxCell>
        <mxCell id="ExXGJqB2bO8ZWLYXyuPD-49" style="edgeStyle=orthogonalEdgeStyle;rounded=0;orthogonalLoop=1;jettySize=auto;html=1;entryX=1;entryY=0.25;entryDx=0;entryDy=0;startArrow=classic;startFill=1;" edge="1" parent="1" source="ExXGJqB2bO8ZWLYXyuPD-34" target="ExXGJqB2bO8ZWLYXyuPD-42">
          <mxGeometry relative="1" as="geometry">
            <Array as="points">
              <mxPoint x="1450" y="480" />
              <mxPoint x="1450" y="555" />
            </Array>
          </mxGeometry>
        </mxCell>
        <mxCell id="ExXGJqB2bO8ZWLYXyuPD-34" value="Network" style="rounded=0;whiteSpace=wrap;html=1;" vertex="1" parent="1">
          <mxGeometry x="1540" y="396" width="120" height="90" as="geometry" />
        </mxCell>
        <mxCell id="ExXGJqB2bO8ZWLYXyuPD-37" style="edgeStyle=orthogonalEdgeStyle;rounded=0;orthogonalLoop=1;jettySize=auto;html=1;exitX=1;exitY=0.25;exitDx=0;exitDy=0;entryX=0;entryY=0.5;entryDx=0;entryDy=0;startArrow=classic;startFill=1;" edge="1" parent="1" source="ExXGJqB2bO8ZWLYXyuPD-4" target="ExXGJqB2bO8ZWLYXyuPD-34">
          <mxGeometry relative="1" as="geometry" />
        </mxCell>
        <mxCell id="ExXGJqB2bO8ZWLYXyuPD-38" style="edgeStyle=orthogonalEdgeStyle;rounded=0;orthogonalLoop=1;jettySize=auto;html=1;exitX=1;exitY=0.75;exitDx=0;exitDy=0;entryX=0;entryY=0.5;entryDx=0;entryDy=0;startArrow=classic;startFill=1;" edge="1" parent="1" source="ExXGJqB2bO8ZWLYXyuPD-4" target="ExXGJqB2bO8ZWLYXyuPD-33">
          <mxGeometry relative="1" as="geometry" />
        </mxCell>
        <mxCell id="ExXGJqB2bO8ZWLYXyuPD-44" style="edgeStyle=orthogonalEdgeStyle;rounded=0;orthogonalLoop=1;jettySize=auto;html=1;exitX=1;exitY=0.75;exitDx=0;exitDy=0;entryX=-0.003;entryY=0.86;entryDx=0;entryDy=0;entryPerimeter=0;" edge="1" parent="1" source="ExXGJqB2bO8ZWLYXyuPD-42" target="ExXGJqB2bO8ZWLYXyuPD-33">
          <mxGeometry relative="1" as="geometry">
            <Array as="points">
              <mxPoint x="1150" y="585" />
              <mxPoint x="1150" y="657" />
            </Array>
          </mxGeometry>
        </mxCell>
        <mxCell id="ExXGJqB2bO8ZWLYXyuPD-52" style="edgeStyle=orthogonalEdgeStyle;rounded=0;orthogonalLoop=1;jettySize=auto;html=1;entryX=0;entryY=0.25;entryDx=0;entryDy=0;" edge="1" parent="1" source="ExXGJqB2bO8ZWLYXyuPD-51" target="ExXGJqB2bO8ZWLYXyuPD-9">
          <mxGeometry relative="1" as="geometry" />
        </mxCell>
      </root>
    </mxGraphModel>
  </diagram>
</mxfile>
